<svg width="24" height="25" viewBox="0 0 24 25" fill="none" xmlns="http://www.w3.org/2000/svg">
<path d="M10.0703 21.0029C10.0703 20.8563 10.038 20.7114 9.97578 20.5786C9.91353 20.4458 9.82284 20.3284 9.71014 20.2345C9.59743 20.1407 9.46546 20.0728 9.32359 20.0356C9.18171 19.9985 9.03341 19.993 8.88917 20.0195C7.58009 20.2598 5.92726 20.2959 5.4878 19.0615C5.10461 18.1055 4.46987 17.2711 3.65089 16.6465C3.59246 16.6148 3.53677 16.5782 3.48439 16.5372C3.41272 16.3481 3.2854 16.1852 3.11925 16.0699C2.95311 15.9547 2.75592 15.8925 2.55372 15.8916H2.54884C2.28444 15.8916 2.03077 15.9962 1.84335 16.1827C1.65594 16.3692 1.55004 16.6224 1.54884 16.8868C1.54493 17.7022 2.35984 18.2247 2.69044 18.4014C3.08029 18.7931 3.39359 19.2541 3.61427 19.7608C3.97853 20.7842 5.03712 22.337 8.08009 22.1368C8.08109 22.1719 8.08204 22.2051 8.08253 22.2354L8.08692 22.503C8.08692 22.7682 8.19228 23.0226 8.37982 23.2101C8.56735 23.3976 8.82171 23.503 9.08692 23.503C9.35214 23.503 9.60649 23.3976 9.79403 23.2101C9.98157 23.0226 10.0869 22.7682 10.0869 22.503L10.082 22.1846C10.0772 21.9951 10.0703 21.7207 10.0703 21.0029ZM20.7373 5.87694C20.7691 5.75194 20.8003 5.61327 20.8277 5.45702C20.9894 4.34261 20.8484 3.20521 20.4195 2.16402C20.3653 2.02828 20.2822 1.90603 20.1758 1.80582C20.0694 1.70562 19.9425 1.62989 19.8037 1.58395C19.4477 1.46383 18.1333 1.2275 15.6197 2.83395C13.5302 2.34224 11.3551 2.34224 9.26565 2.83395C6.76222 1.25103 5.4546 1.46583 5.10206 1.57911C4.95993 1.62319 4.82946 1.69851 4.72021 1.79957C4.61097 1.90062 4.52572 2.02483 4.47071 2.16311C4.03301 3.22429 3.89355 4.38488 4.06739 5.51955C4.09181 5.64748 4.11817 5.76565 4.14552 5.87404C3.31709 6.97748 2.87583 8.3234 2.89015 9.70314C2.88745 10.011 2.90163 10.3187 2.93263 10.625C3.26663 15.2275 6.26663 16.6094 8.35694 17.084C8.31349 17.209 8.27394 17.3428 8.23878 17.4844C8.17612 17.7417 8.21805 18.0133 8.35538 18.2398C8.49271 18.4662 8.71422 18.6289 8.97135 18.6923C9.22848 18.7556 9.50024 18.7144 9.72703 18.5777C9.95382 18.441 10.1171 18.2199 10.1812 17.9629C10.2448 17.6297 10.4079 17.3236 10.6489 17.085C10.7947 16.9574 10.9002 16.7902 10.9527 16.6037C11.0052 16.4172 11.0023 16.2195 10.9445 16.0346C10.8866 15.8497 10.7763 15.6856 10.6269 15.5623C10.4775 15.4389 10.2955 15.3617 10.103 15.3399C6.64894 14.9453 5.14942 13.5381 4.92384 10.4414C4.89885 10.1962 4.88761 9.94968 4.89015 9.70315C4.87411 8.7198 5.19898 7.76123 5.80958 6.99026C5.87093 6.90988 5.93628 6.83263 6.00538 6.75881C6.12781 6.62181 6.21013 6.45373 6.2433 6.27301C6.27646 6.0923 6.25919 5.90594 6.19338 5.7344C6.12592 5.55393 6.07397 5.36803 6.03811 5.17873C5.95664 4.64044 5.98337 4.09132 6.11671 3.56349C6.98585 3.80896 7.80383 4.20853 8.53171 4.74317C8.65208 4.82334 8.78828 4.8767 8.93108 4.89961C9.07388 4.92253 9.21994 4.91447 9.35935 4.87599C11.3805 4.32749 13.5113 4.32783 15.5322 4.87699C15.6724 4.91543 15.8192 4.92303 15.9626 4.89926C16.106 4.87549 16.2425 4.82091 16.3628 4.7393C17.0872 4.20244 17.9018 3.7993 18.768 3.54887C18.9008 4.06402 18.9305 4.60032 18.8554 5.12699C18.8192 5.33453 18.7626 5.53799 18.6865 5.73442C18.6207 5.90596 18.6034 6.09232 18.6366 6.27303C18.6697 6.45375 18.7521 6.62183 18.8745 6.75883C18.9516 6.84574 19.0288 6.93949 19.0981 7.02738C19.7044 7.7853 20.0238 8.73285 20 9.70314C20.0018 9.96275 19.9893 10.2223 19.9624 10.4805C19.7422 13.5361 18.2368 14.9443 14.7666 15.3398C14.5741 15.3618 14.392 15.4392 14.2427 15.5626C14.0933 15.6861 13.983 15.8503 13.9253 16.0353C13.8675 16.2202 13.8647 16.418 13.9172 16.6046C13.9698 16.7911 14.0754 16.9583 14.2212 17.0859C14.4698 17.331 14.6333 17.6493 14.6875 17.9941C14.7551 18.2618 14.7861 18.5375 14.7798 18.8135V21.1475C14.77 21.7949 14.77 22.2803 14.77 22.5029C14.77 22.7682 14.8754 23.0225 15.0629 23.21C15.2504 23.3976 15.5048 23.5029 15.77 23.5029C16.0352 23.5029 16.2896 23.3976 16.4771 23.21C16.6647 23.0225 16.77 22.7682 16.77 22.5029C16.77 22.2861 16.77 21.8106 16.7798 21.1631V18.8135C16.7878 18.3713 16.7358 17.9301 16.625 17.502C16.5933 17.3614 16.5545 17.2226 16.5088 17.086C18.03 16.8332 19.4123 16.0489 20.4094 14.8726C21.4065 13.6962 21.9539 12.2042 21.9541 10.6621C21.987 10.3436 22.0024 10.0234 22 9.70314C22.0222 8.32191 21.5773 6.97366 20.7373 5.87696L20.7373 5.87694Z" fill="#232E35"/>
</svg>
