<svg width="24" height="25" viewBox="0 0 24 25" fill="none" xmlns="http://www.w3.org/2000/svg">
<path d="M12 7.5C11.0111 7.5 10.0444 7.79324 9.22215 8.34265C8.3999 8.89206 7.75904 9.67295 7.3806 10.5866C7.00216 11.5002 6.90315 12.5055 7.09607 13.4755C7.289 14.4454 7.7652 15.3363 8.46447 16.0355C9.16373 16.7348 10.0546 17.211 11.0245 17.4039C11.9945 17.5969 12.9998 17.4978 13.9134 17.1194C14.827 16.741 15.6079 16.1001 16.1573 15.2779C16.7068 14.4556 17 13.4889 17 12.5C17 11.1739 16.4732 9.90215 15.5355 8.96447C14.5979 8.02678 13.3261 7.5 12 7.5ZM12 15.5C11.4067 15.5 10.8266 15.3241 10.3333 14.9944C9.83994 14.6648 9.45542 14.1962 9.22836 13.6481C9.0013 13.0999 8.94189 12.4967 9.05764 11.9147C9.1734 11.3328 9.45912 10.7982 9.87868 10.3787C10.2982 9.95912 10.8328 9.6734 11.4147 9.55764C11.9967 9.44189 12.5999 9.5013 13.1481 9.72836C13.6962 9.95542 14.1648 10.3399 14.4944 10.8333C14.8241 11.3266 15 11.9067 15 12.5C15 13.2956 14.6839 14.0587 14.1213 14.6213C13.5587 15.1839 12.7956 15.5 12 15.5ZM17 6.5C16.8022 6.5 16.6089 6.55865 16.4444 6.66853C16.28 6.77841 16.1518 6.93459 16.0761 7.11732C16.0004 7.30004 15.9806 7.50111 16.0192 7.69509C16.0578 7.88907 16.153 8.06725 16.2929 8.20711C16.4327 8.34696 16.6109 8.4422 16.8049 8.48079C16.9989 8.51937 17.2 8.49957 17.3827 8.42388C17.5654 8.34819 17.7216 8.22002 17.8315 8.05557C17.9414 7.89112 18 7.69778 18 7.5C18 7.23478 17.8946 6.98043 17.7071 6.79289C17.5196 6.60536 17.2652 6.5 17 6.5ZM21.94 8.74C21.9234 7.88542 21.7611 7.03995 21.46 6.24C21.1808 5.51207 20.7516 4.85099 20.2003 4.2997C19.649 3.7484 18.9879 3.31922 18.26 3.04C17.4601 2.7389 16.6146 2.57657 15.76 2.56C14.79 2.5 14.47 2.5 12 2.5C9.53 2.5 9.21 2.5 8.24 2.56C7.38542 2.57657 6.53995 2.7389 5.74 3.04C5.01207 3.31922 4.35099 3.7484 3.7997 4.2997C3.2484 4.85099 2.81922 5.51207 2.54 6.24C2.2389 7.03995 2.07657 7.88542 2.06 8.74C2 9.72 2 10.04 2 12.5C2 14.96 2 15.28 2.06 16.26C2.07657 17.1146 2.2389 17.9601 2.54 18.76C2.81922 19.4879 3.2484 20.149 3.7997 20.7003C4.35099 21.2516 5.01207 21.6808 5.74 21.96C6.53995 22.2611 7.38542 22.4234 8.24 22.44C9.24 22.44 9.53 22.5 12 22.5C14.47 22.5 14.79 22.5 15.76 22.44C16.6146 22.4234 17.4601 22.2611 18.26 21.96C18.9879 21.6808 19.649 21.2516 20.2003 20.7003C20.7516 20.149 21.1808 19.4879 21.46 18.76C21.7611 17.9601 21.9234 17.1146 21.94 16.26C21.94 15.26 22 14.96 22 12.5C22 10.04 22 9.72 21.94 8.74ZM19.94 16.17C19.9225 16.8046 19.8043 17.4324 19.59 18.03C19.4128 18.5023 19.1327 18.9293 18.77 19.28C18.4214 19.6428 17.9936 19.9201 17.52 20.09C16.921 20.3131 16.289 20.4348 15.65 20.45C14.71 20.45 14.42 20.5 11.99 20.5C9.56 20.5 9.28 20.5 8.34 20.5C7.70202 20.4835 7.07075 20.3654 6.47 20.15C5.99766 19.9728 5.57067 19.6927 5.22 19.33C4.85715 18.9814 4.57992 18.5536 4.41 18.08C4.1878 17.4842 4.06615 16.8557 4.05 16.22C4.05 15.22 4.05 14.97 4.05 12.55C4.05 10.13 4.05 9.84 4.05 8.88C4.06724 8.24121 4.18884 7.60954 4.41 7.01C4.58256 6.54063 4.85953 6.11662 5.22 5.77C5.56858 5.40715 5.99641 5.12992 6.47 4.96C7.06899 4.7369 7.70099 4.61523 8.34 4.6C9.28 4.5 9.57 4.5 12 4.5C14.43 4.5 14.72 4.5 15.66 4.5C16.3021 4.51633 16.9373 4.63794 17.54 4.86C18.0094 5.03256 18.4334 5.30953 18.78 5.67C19.1428 6.01858 19.4201 6.44641 19.59 6.92C19.8348 7.52856 19.9735 8.17458 20 8.83C20 9.83 20.05 10.08 20.05 12.5C20.05 14.92 20 15.21 20 16.17H19.94Z" fill="#232E35"/>
</svg>
