<svg width="61" height="61" viewBox="0 0 61 61" fill="none" xmlns="http://www.w3.org/2000/svg">
<path d="M51.4688 3.8125H9.53125C6.37402 3.8125 3.8125 6.37402 3.8125 9.53125V51.4688C3.8125 54.626 6.37402 57.1875 9.53125 57.1875H51.4688C54.626 57.1875 57.1875 54.626 57.1875 51.4688V9.53125C57.1875 6.37402 54.626 3.8125 51.4688 3.8125ZM32.859 45.4402C32.859 50.6348 29.809 53.0057 25.365 53.0057C21.35 53.0057 19.0268 50.9326 17.8354 48.4187L21.9219 45.9525C22.7082 47.3465 23.423 48.526 25.1506 48.526C26.7947 48.526 27.8432 47.8826 27.8432 45.3687V28.3197H32.859V45.4402ZM44.7254 53.0057C40.067 53.0057 37.0527 50.7896 35.5873 47.8826L39.6738 45.5236C40.7461 47.275 42.152 48.5736 44.6182 48.5736C46.6912 48.5736 48.0256 47.5371 48.0256 46.0955C48.0256 44.3799 46.6674 43.7723 44.368 42.7596L43.117 42.2234C39.4951 40.6865 37.1004 38.7445 37.1004 34.658C37.1004 30.8932 39.9717 28.0338 44.4395 28.0338C47.6324 28.0338 49.9199 29.1418 51.5641 32.0488L47.6562 34.5508C46.7984 33.0139 45.8691 32.4062 44.4275 32.4062C42.9621 32.4062 42.0328 33.3355 42.0328 34.5508C42.0328 36.052 42.9621 36.6596 45.1186 37.6008L46.3695 38.1369C50.6348 39.9598 53.0295 41.8303 53.0295 46.024C53.0295 50.5275 49.4791 53.0057 44.7254 53.0057Z" fill="#FFE818"/>
</svg>
