<svg width="61" height="61" viewBox="0 0 61 61" fill="none" xmlns="http://www.w3.org/2000/svg">
<rect width="61" height="61" rx="7" fill="#0275B8"/>
<path d="M30.5 16.0601C46.8366 16.0601 59.3988 22.9417 59.3988 30.5C59.3988 38.0582 46.827 44.9398 30.5 44.9398C14.1634 44.9398 1.60125 38.0582 1.60125 30.5C1.60125 22.9417 14.173 16.0601 30.5 16.0601ZM30.5 14.4589C13.6583 14.4589 0 21.6359 0 30.5C0 39.364 13.6583 46.541 30.5 46.541C47.3417 46.541 61 39.364 61 30.5C61 21.6359 47.3417 14.4589 30.5 14.4589ZM20.7972 29.2132C20.0442 33.0734 17.385 32.6731 14.1158 32.6731L15.4216 25.944C19.0434 25.944 21.5025 25.5532 20.7972 29.2132ZM9.28344 39.4879H12.7814L13.6106 35.2179C17.528 35.2179 19.9584 35.5039 22.2078 33.3975C24.6955 31.11 25.3436 27.0401 23.5708 25.0004C22.6462 23.9329 21.1594 23.4087 19.1387 23.4087H12.4002L9.28344 39.4879ZM26.983 19.1292H30.4619L29.6327 23.3992C32.635 23.3992 35.4181 23.18 36.762 24.419C38.1727 25.7153 37.4959 27.3737 35.9709 35.1989H32.4444C33.9122 27.631 34.1886 27.002 33.6548 26.4301C33.1402 25.8773 31.9678 25.9917 29.137 25.9917L27.3452 35.1989H23.8662L26.983 19.1292ZM48.1328 29.2132C47.3703 33.1306 44.6348 32.6731 41.4514 32.6731L42.7572 25.944C46.3981 25.944 48.8381 25.5532 48.1328 29.2132ZM36.6191 39.4879H40.1266L40.9558 35.2179C45.0733 35.2179 47.3513 35.4562 49.553 33.3975C52.0406 31.11 52.6888 27.0401 50.9159 25.0004C49.9914 23.9329 48.5045 23.4087 46.4839 23.4087H39.7453L36.6191 39.4879Z" fill="white"/>
</svg>
