<svg width="61" height="61" viewBox="0 0 61 61" fill="none" xmlns="http://www.w3.org/2000/svg">
<path d="M49.8246 21.1117C49.1813 20.8972 48.5379 20.6947 47.8945 20.5041C48.0018 20.0633 48.0971 19.6224 48.1924 19.1816C49.6578 12.0808 48.6928 6.374 45.4402 4.49158C42.3068 2.69255 37.1957 4.56306 32.025 9.06658C31.5127 9.5074 31.0123 9.97204 30.5357 10.4367C30.2141 10.1269 29.8805 9.81716 29.5469 9.51931C24.126 4.70603 18.6932 2.68064 15.4406 4.57498C12.3191 6.38591 11.3898 11.7592 12.7004 18.4787C12.8314 19.1459 12.9744 19.8011 13.1412 20.4683C12.3787 20.6828 11.6281 20.9211 10.9252 21.1713C4.56309 23.3754 0 26.8543 0 30.4523C0 34.1695 4.86094 37.8986 11.4732 40.1623C12.0094 40.341 12.5455 40.5197 13.0936 40.6746C12.9148 41.3894 12.76 42.0924 12.617 42.8191C11.366 49.4314 12.343 54.6736 15.4645 56.4726C18.6813 58.3312 24.0902 56.425 29.3562 51.8142C29.7732 51.4449 30.1902 51.0636 30.6072 50.6586C31.1314 51.1709 31.6795 51.6593 32.2275 52.1359C37.3268 56.5203 42.3664 58.2955 45.476 56.4965C48.6928 54.6379 49.7412 49.0025 48.383 42.14C48.2758 41.6158 48.1566 41.0797 48.0256 40.5316C48.4068 40.4244 48.7762 40.3052 49.1455 40.1861C56.0199 37.9105 61 34.2291 61 30.4523C61 26.8424 56.3059 23.3396 49.8246 21.1117ZM33.7049 10.9967C38.1369 7.1365 42.2711 5.62341 44.1535 6.70759C46.167 7.86326 46.9414 12.5336 45.6785 18.6693C45.5951 19.0744 45.5117 19.4676 45.4045 19.8607C42.7596 19.265 40.0789 18.8361 37.3863 18.5978C35.8375 16.3818 34.1457 14.2611 32.3109 12.2715C32.7756 11.8306 33.2283 11.4136 33.7049 10.9967ZM19.9203 36.6357C20.5279 37.6722 21.1475 38.7088 21.8027 39.7215C19.9441 39.5189 18.0975 39.2211 16.2746 38.8279C16.7988 37.1123 17.4541 35.3371 18.2166 33.5261C18.7646 34.5746 19.3246 35.6111 19.9203 36.6357ZM16.3104 22.3031C18.026 21.9218 19.8488 21.6121 21.7432 21.3738C21.1117 22.3627 20.4922 23.3754 19.9084 24.4C19.3246 25.4127 18.7527 26.4492 18.2166 27.4976C17.466 25.7224 16.8346 23.983 16.3104 22.3031ZM19.5748 30.5119C20.3611 28.8677 21.2189 27.2593 22.1244 25.6748C23.0299 24.0902 24.0068 22.5533 25.0314 21.0402C26.8186 20.9092 28.6414 20.8377 30.5 20.8377C32.3586 20.8377 34.1934 20.9092 35.9686 21.0402C36.9812 22.5414 37.9463 24.0783 38.8637 25.6509C39.7811 27.2236 40.6389 28.832 41.449 30.4642C40.6508 32.1084 39.793 33.7287 38.8756 35.3252C37.9701 36.9097 37.0051 38.4467 35.9924 39.9717C34.2172 40.1027 32.3705 40.1623 30.5 40.1623C28.6295 40.1623 26.8186 40.1027 25.0672 39.9955C24.0307 38.4824 23.0537 36.9336 22.1363 35.349C21.2189 33.7644 20.373 32.156 19.5748 30.5119ZM41.0916 36.6119C41.6992 35.5634 42.2711 34.5031 42.8311 33.4308C43.5936 35.1584 44.2607 36.9097 44.8445 38.7088C42.9979 39.1258 41.1273 39.4474 39.2449 39.6619C39.8883 38.6611 40.4959 37.6365 41.0916 36.6119ZM42.8072 27.4976C42.2473 26.4492 41.6754 25.4008 41.0797 24.3761C40.4959 23.3635 39.8883 22.3627 39.2568 21.3738C41.175 21.6121 43.0098 21.9338 44.7254 22.3269C44.1773 24.0902 43.534 25.8058 42.8072 27.4976ZM30.5238 14.0943C31.7748 15.4525 32.9543 16.8822 34.0504 18.3595C31.6914 18.2523 29.3205 18.2523 26.9615 18.3595C28.1291 16.8226 29.3324 15.3929 30.5238 14.0943ZM16.7035 6.79099C18.7051 5.62341 23.149 7.29138 27.8313 11.4375C28.1291 11.6996 28.427 11.9855 28.7367 12.2715C26.89 14.2611 25.1863 16.3818 23.6256 18.5978C20.933 18.8361 18.2643 19.2531 15.6193 19.8369C15.4645 19.2293 15.3334 18.6097 15.2023 17.9902C14.0824 12.2238 14.8211 7.87517 16.7035 6.79099ZM13.7846 38.1965C13.2842 38.0535 12.7957 37.8986 12.3072 37.7318C9.76953 36.9336 6.88633 35.6707 4.80137 34.0146C3.59805 33.1806 2.78789 31.8939 2.56152 30.4523C2.56152 28.272 6.32637 25.4842 11.7592 23.5898C12.4383 23.3515 13.1293 23.1371 13.8203 22.9345C14.6305 25.5199 15.6074 28.0576 16.7393 30.5119C15.5955 33.0019 14.6066 35.5754 13.7846 38.1965ZM27.6764 49.8722C25.7105 51.6713 23.435 53.1009 20.9568 54.0779C19.6344 54.7093 18.1094 54.7689 16.7512 54.2328C14.8568 53.1367 14.0705 48.931 15.1428 43.2718C15.2738 42.6047 15.4168 41.9375 15.5836 41.2822C18.2523 41.8541 20.9449 42.2472 23.6732 42.4498C25.2459 44.6777 26.9734 46.8103 28.8201 48.8119C28.4389 49.1812 28.0576 49.5386 27.6764 49.8722ZM30.5953 46.9771C29.3801 45.6666 28.1648 44.2131 26.9854 42.6523C28.1291 42.7 29.3086 42.7238 30.5 42.7238C31.7271 42.7238 32.9305 42.7 34.1219 42.6404C33.0258 44.1535 31.8463 45.5951 30.5953 46.9771ZM46.167 50.5513C46.0598 52.0049 45.3449 53.3631 44.2012 54.2804C42.3068 55.3765 38.268 53.9468 33.9074 50.2058C33.407 49.7769 32.9066 49.3123 32.3943 48.8357C34.2172 46.8222 35.8971 44.6896 37.4221 42.4498C40.1504 42.2234 42.8668 41.8064 45.5475 41.1988C45.6666 41.6873 45.7738 42.1758 45.8691 42.6523C46.4529 45.2258 46.5482 47.9064 46.167 50.5513ZM48.3354 37.7437C48.0018 37.8509 47.6682 37.9582 47.3227 38.0535C46.4887 35.4562 45.4641 32.9185 44.2846 30.4523C45.4283 28.0218 46.3934 25.5199 47.2035 22.9584C47.823 23.1371 48.4188 23.3277 48.9906 23.5183C54.5426 25.4246 58.4385 28.2601 58.4385 30.4285C58.4385 32.7636 54.2805 35.7779 48.3354 37.7437ZM30.5 35.9566C33.5143 35.9566 35.9566 33.5142 35.9566 30.5C35.9566 27.4857 33.5143 25.0433 30.5 25.0433C27.4857 25.0433 25.0434 27.4857 25.0434 30.5C25.0434 33.5142 27.4857 35.9566 30.5 35.9566Z" fill="#35B6FF"/>
</svg>
