<svg width="24" height="25" viewBox="0 0 24 25" fill="none" xmlns="http://www.w3.org/2000/svg">
<path d="M22.9912 4.45021C22.9913 4.27357 22.9446 4.10007 22.8558 3.94735C22.7671 3.79464 22.6394 3.66817 22.4859 3.58084C22.3324 3.4935 22.1584 3.44842 21.9818 3.45017C21.8052 3.45193 21.6322 3.50046 21.4804 3.59083C20.8951 3.93921 20.265 4.20601 19.6074 4.38383C18.6684 3.57806 17.4708 3.13713 16.2334 3.14164C14.876 3.1432 13.5723 3.67223 12.5976 4.61702C11.623 5.56181 11.0536 6.8484 11.0098 8.20512C8.33378 7.77838 5.90843 6.38164 4.19625 4.28126C4.09308 4.15609 3.96133 4.05757 3.81211 3.994C3.66288 3.93043 3.50056 3.90368 3.33883 3.91601C3.17719 3.92932 3.02122 3.9818 2.88442 4.06892C2.74762 4.15603 2.63409 4.27516 2.55367 4.41601C2.1412 5.13582 1.9043 5.94276 1.86222 6.77131C1.82014 7.59986 1.97406 8.42666 2.31148 9.18456L2.30953 9.18651C2.15788 9.27991 2.03272 9.41066 1.94603 9.56625C1.85935 9.72185 1.81403 9.89708 1.81441 10.0752C1.81257 10.2221 1.82139 10.369 1.84078 10.5146C1.94292 11.7729 2.50056 12.9507 3.40914 13.8271C3.3475 13.9446 3.30988 14.0731 3.29848 14.2052C3.28708 14.3373 3.30212 14.4704 3.34273 14.5967C3.73884 15.8308 4.58123 16.8727 5.70504 17.5185C4.56328 17.96 3.33046 18.114 2.11519 17.9668C1.89026 17.9386 1.66242 17.9876 1.46904 18.1059C1.27566 18.2242 1.12822 18.4047 1.0509 18.6178C0.973592 18.8309 0.970999 19.0639 1.04355 19.2787C1.1161 19.4935 1.25949 19.6772 1.45019 19.7998C3.54028 21.146 5.97387 21.8617 8.45996 21.8613C11.2792 21.893 14.0299 20.9921 16.2842 19.2988C18.5385 17.6054 20.1699 15.2145 20.9248 12.498C21.2778 11.3146 21.4581 10.0865 21.46 8.85157C21.46 8.78614 21.46 8.71876 21.459 8.65138C21.9811 8.08831 22.3855 7.42668 22.6486 6.70527C22.9117 5.98387 23.0282 5.2172 22.9912 4.45021ZM19.6845 7.66212C19.5194 7.85746 19.4358 8.10891 19.4511 8.36427C19.4609 8.52927 19.4599 8.69527 19.4599 8.85157C19.4579 9.89511 19.3049 10.9329 19.0058 11.9326C18.3893 14.244 17.015 16.2817 15.1029 17.7192C13.1908 19.1568 10.8516 19.9111 8.45996 19.8613C7.60084 19.8616 6.74468 19.7606 5.90918 19.5606C6.97459 19.2172 7.97077 18.6879 8.85156 17.9971C9.01378 17.8693 9.13251 17.6945 9.19145 17.4967C9.25038 17.2988 9.24664 17.0875 9.18073 16.8918C9.11483 16.6961 8.98999 16.5257 8.82334 16.4038C8.65669 16.2819 8.4564 16.2145 8.24996 16.2109C7.41879 16.198 6.62509 15.863 6.03609 15.2764C6.18551 15.2481 6.33395 15.2129 6.48141 15.1709C6.69742 15.1094 6.88645 14.977 7.01807 14.795C7.14969 14.6131 7.21623 14.3921 7.20698 14.1677C7.19773 13.9433 7.11324 13.7285 6.96709 13.558C6.82095 13.3874 6.62167 13.2711 6.40133 13.2275C5.91887 13.1323 5.46487 12.927 5.07464 12.6277C4.68441 12.3284 4.36845 11.9432 4.15133 11.502C4.33206 11.5266 4.51394 11.5419 4.69625 11.5479C4.91283 11.5511 5.12484 11.4854 5.30162 11.3603C5.47841 11.2351 5.6108 11.0569 5.67965 10.8516C5.74563 10.6443 5.74223 10.4212 5.66998 10.2161C5.59772 10.011 5.46055 9.83499 5.27926 9.71485C4.83941 9.42182 4.4791 9.02427 4.23061 8.5578C3.98213 8.09134 3.85322 7.57052 3.85543 7.04201C3.85543 6.97561 3.85738 6.9092 3.86129 6.84377C6.10255 8.93402 9.00961 10.1662 12.0703 10.3233C12.2248 10.3293 12.3786 10.3002 12.5202 10.2382C12.6618 10.1761 12.7875 10.0826 12.8877 9.96486C12.9869 9.84596 13.0571 9.70566 13.0928 9.55501C13.1286 9.40437 13.1289 9.24748 13.0937 9.0967C13.0365 8.85806 13.0073 8.61357 13.0068 8.36818C13.0077 7.51271 13.3479 6.69254 13.9528 6.08764C14.5577 5.48274 15.3779 5.14251 16.2334 5.14161C16.6735 5.14043 17.1091 5.2305 17.5127 5.40615C17.9162 5.5818 18.279 5.8392 18.5781 6.16212C18.6934 6.2862 18.8386 6.37871 18.9998 6.43085C19.161 6.48299 19.3328 6.49303 19.499 6.46001C19.9097 6.38006 20.3146 6.2724 20.7109 6.13775C20.4406 6.69072 20.0952 7.20369 19.6845 7.66212Z" fill="#232E35"/>
</svg>
